# xmcd
#
# Track frame offsets:
#	150
#	8906
#	17938
#	27725
#	37667
#	46709
#	55747
#	69209
#	79129
#	90969
#	105560
#	117500
#	126427
#	134521
#	144394
#	155084
#	164769
#	175667
#	188777
#	198685
#	207631
#	219567
#
# Disc length: 3085 seconds
#
# Revision: 1
# Processed by: cddbd v1.5.2PL0 Copyright (c) Steve Scherf et al.
# Submitted via: audiograbber 1.83.01
#
DISCID=3c0c0b16
DTITLE=Various Artist - Hillbilly Fever In And On The Air
DYEAR=1900
DGENRE=Country
TTITLE0=Little Jimmy Dickens - Hillbilly Fever
TTITLE1=Little Jimmy Dickens - Black Eyed Joe's
TTITLE2=Ray Price And Van Howard - Run Boy
TTITLE3=Pee Wee King - Blue Suede Shoes
TTITLE4=Mac Wiseman - When I Get The Money Made
TTITLE5=Jimmy Dean - Tennessee Saturday Night
TTITLE6=Marty Robbins - They'll Never Take Ger Love
TTITLE7=Patsy Cline - I'm Walking The Dog
TTITLE8=Patsy Cline - It Wasn't God That Made Honky Tonk Angels
TTITLE9=Patsy Cline - The Wayward Wind
TTITLE10=Red Sovine and Webb Pierce - Why Baby Why ?
TTITLE11=Ferlin Husky - I Wouldn't Treat A Dog
TTITLE12=Ferlin Husky - You Make Me Feel So Funny
TTITLE13=Mel Tillis - Honky Tonk Song
TTITLE14=Mel Tillis - Jambalaya
TTITLE15=Pee Wee King - Slow Poke
TTITLE16=Pee Wee King - Woodchopper's Ball
TTITLE17=Flat And Scruggs - On My Mind
TTITLE18=The Winter Brothers - No One But You
TTITLE19=The Winter Brothers - Bye,Bye Love
TTITLE20=The Winter Brothers - What Do You See In Him
TTITLE21=Dave Rich - Ain't It Fine
EXTD=
EXTT0=
EXTT1=
EXTT2=
EXTT3=
EXTT4=
EXTT5=
EXTT6=
EXTT7=
EXTT8=
EXTT9=
EXTT10=
EXTT11=
EXTT12=
EXTT13=
EXTT14=
EXTT15=
EXTT16=
EXTT17=
EXTT18=
EXTT19=
EXTT20=
EXTT21=
PLAYORDER=
